<!-- icon666.com - MILLIONS vector ICONS FREE --><svg xmlns="http://www.w3.org/2000/svg" id="icons" viewBox="0 0 48 48"><path d="M45.78,12.37A1,1,0,0,0,45,12H43V7a1,1,0,0,0-1-1H28a1,1,0,0,0-1,1v5H24.66L21.92,5.61a1,1,0,0,0-1.46-.45L9.71,12H8l-.11,0L7,7.79A1,1,0,0,0,6,7H2A1,1,0,0,0,2,9H5.19l5.15,24a5,5,0,0,0,4.25,3.9A3.93,3.93,0,0,0,14,39a4,4,0,0,0,8,0,3.91,3.91,0,0,0-.56-2h8.12A3.91,3.91,0,0,0,29,39a4,4,0,0,0,8,0,3.91,3.91,0,0,0-.56-2H40a1,1,0,0,0,0-2H15.24a3,3,0,0,1-2.94-2.38L12.17,32H41a1,1,0,0,0,1-.78l4-18A1,1,0,0,0,45.78,12.37ZM20,39a2,2,0,1,1-2-2A2,2,0,0,1,20,39Zm15,0a2,2,0,1,1-2-2A2,2,0,0,1,35,39ZM29,8H41v4H29Zm5.88,6-.77,7H27V14ZM25,14v7H16.89l-.77-7Zm0,9v7H17.89l-.77-7Zm2,0h6.88l-.77,7H27ZM20.54,7.48,22.48,12h-9ZM14.11,14l.77,7H9.81l-1.5-7Zm-3.87,9h4.87l.77,7H11.74Zm30,7H35.12l.77-7h5.86Zm2-9A1.06,1.06,0,0,0,42,21H36.12l.77-7h6.86Z"></path></svg>